<svg xmlns="http://www.w3.org/2000/svg" viewBox="0 0 45 45" width="720" height="720" shape-rendering="crispEdges" role="img"
     aria-label="Quét để mở namanh-portfolio.vercel.app">
  <rect width="45" height="45" fill="#fff"/>
  <path fill="#000" d="M4 4h1v1h-1zM5 4h1v1h-1zM6 4h1v1h-1zM7 4h1v1h-1zM8 4h1v1h-1zM9 4h1v1h-1zM10 4h1v1h-1zM16 4h1v1h-1zM17 4h1v1h-1zM20 4h1v1h-1zM24 4h1v1h-1zM28 4h1v1h-1zM29 4h1v1h-1zM30 4h1v1h-1zM31 4h1v1h-1zM32 4h1v1h-1zM34 4h1v1h-1zM35 4h1v1h-1zM36 4h1v1h-1zM37 4h1v1h-1zM38 4h1v1h-1zM39 4h1v1h-1zM40 4h1v1h-1zM4 5h1v1h-1zM10 5h1v1h-1zM16 5h1v1h-1zM17 5h1v1h-1zM20 5h1v1h-1zM22 5h1v1h-1zM26 5h1v1h-1zM34 5h1v1h-1zM40 5h1v1h-1zM4 6h1v1h-1zM6 6h1v1h-1zM7 6h1v1h-1zM8 6h1v1h-1zM10 6h1v1h-1zM12 6h1v1h-1zM14 6h1v1h-1zM15 6h1v1h-1zM16 6h1v1h-1zM17 6h1v1h-1zM22 6h1v1h-1zM24 6h1v1h-1zM25 6h1v1h-1zM30 6h1v1h-1zM34 6h1v1h-1zM36 6h1v1h-1zM37 6h1v1h-1zM38 6h1v1h-1zM40 6h1v1h-1zM4 7h1v1h-1zM6 7h1v1h-1zM7 7h1v1h-1zM8 7h1v1h-1zM10 7h1v1h-1zM12 7h1v1h-1zM14 7h1v1h-1zM18 7h1v1h-1zM19 7h1v1h-1zM22 7h1v1h-1zM25 7h1v1h-1zM26 7h1v1h-1zM28 7h1v1h-1zM29 7h1v1h-1zM30 7h1v1h-1zM34 7h1v1h-1zM36 7h1v1h-1zM37 7h1v1h-1zM38 7h1v1h-1zM40 7h1v1h-1zM4 8h1v1h-1zM6 8h1v1h-1zM7 8h1v1h-1zM8 8h1v1h-1zM10 8h1v1h-1zM12 8h1v1h-1zM14 8h1v1h-1zM16 8h1v1h-1zM18 8h1v1h-1zM19 8h1v1h-1zM22 8h1v1h-1zM23 8h1v1h-1zM25 8h1v1h-1zM28 8h1v1h-1zM30 8h1v1h-1zM31 8h1v1h-1zM34 8h1v1h-1zM36 8h1v1h-1zM37 8h1v1h-1zM38 8h1v1h-1zM40 8h1v1h-1zM4 9h1v1h-1zM10 9h1v1h-1zM13 9h1v1h-1zM15 9h1v1h-1zM16 9h1v1h-1zM17 9h1v1h-1zM18 9h1v1h-1zM19 9h1v1h-1zM21 9h1v1h-1zM23 9h1v1h-1zM25 9h1v1h-1zM29 9h1v1h-1zM32 9h1v1h-1zM34 9h1v1h-1zM40 9h1v1h-1zM4 10h1v1h-1zM5 10h1v1h-1zM6 10h1v1h-1zM7 10h1v1h-1zM8 10h1v1h-1zM9 10h1v1h-1zM10 10h1v1h-1zM12 10h1v1h-1zM14 10h1v1h-1zM16 10h1v1h-1zM18 10h1v1h-1zM20 10h1v1h-1zM22 10h1v1h-1zM24 10h1v1h-1zM26 10h1v1h-1zM28 10h1v1h-1zM30 10h1v1h-1zM32 10h1v1h-1zM34 10h1v1h-1zM35 10h1v1h-1zM36 10h1v1h-1zM37 10h1v1h-1zM38 10h1v1h-1zM39 10h1v1h-1zM40 10h1v1h-1zM13 11h1v1h-1zM14 11h1v1h-1zM16 11h1v1h-1zM17 11h1v1h-1zM19 11h1v1h-1zM24 11h1v1h-1zM25 11h1v1h-1zM27 11h1v1h-1zM32 11h1v1h-1zM4 12h1v1h-1zM5 12h1v1h-1zM6 12h1v1h-1zM9 12h1v1h-1zM10 12h1v1h-1zM11 12h1v1h-1zM12 12h1v1h-1zM14 12h1v1h-1zM17 12h1v1h-1zM18 12h1v1h-1zM19 12h1v1h-1zM23 12h1v1h-1zM24 12h1v1h-1zM28 12h1v1h-1zM29 12h1v1h-1zM31 12h1v1h-1zM32 12h1v1h-1zM33 12h1v1h-1zM36 12h1v1h-1zM37 12h1v1h-1zM38 12h1v1h-1zM4 13h1v1h-1zM5 13h1v1h-1zM6 13h1v1h-1zM8 13h1v1h-1zM12 13h1v1h-1zM15 13h1v1h-1zM19 13h1v1h-1zM21 13h1v1h-1zM22 13h1v1h-1zM26 13h1v1h-1zM28 13h1v1h-1zM30 13h1v1h-1zM31 13h1v1h-1zM35 13h1v1h-1zM37 13h1v1h-1zM39 13h1v1h-1zM4 14h1v1h-1zM5 14h1v1h-1zM10 14h1v1h-1zM15 14h1v1h-1zM21 14h1v1h-1zM22 14h1v1h-1zM23 14h1v1h-1zM24 14h1v1h-1zM30 14h1v1h-1zM40 14h1v1h-1zM4 15h1v1h-1zM6 15h1v1h-1zM7 15h1v1h-1zM8 15h1v1h-1zM9 15h1v1h-1zM12 15h1v1h-1zM13 15h1v1h-1zM14 15h1v1h-1zM16 15h1v1h-1zM17 15h1v1h-1zM20 15h1v1h-1zM22 15h1v1h-1zM23 15h1v1h-1zM24 15h1v1h-1zM26 15h1v1h-1zM27 15h1v1h-1zM28 15h1v1h-1zM29 15h1v1h-1zM31 15h1v1h-1zM32 15h1v1h-1zM33 15h1v1h-1zM7 16h1v1h-1zM9 16h1v1h-1zM10 16h1v1h-1zM11 16h1v1h-1zM12 16h1v1h-1zM13 16h1v1h-1zM15 16h1v1h-1zM25 16h1v1h-1zM26 16h1v1h-1zM27 16h1v1h-1zM30 16h1v1h-1zM32 16h1v1h-1zM33 16h1v1h-1zM34 16h1v1h-1zM36 16h1v1h-1zM4 17h1v1h-1zM6 17h1v1h-1zM7 17h1v1h-1zM11 17h1v1h-1zM12 17h1v1h-1zM15 17h1v1h-1zM16 17h1v1h-1zM18 17h1v1h-1zM21 17h1v1h-1zM22 17h1v1h-1zM23 17h1v1h-1zM24 17h1v1h-1zM27 17h1v1h-1zM28 17h1v1h-1zM29 17h1v1h-1zM30 17h1v1h-1zM31 17h1v1h-1zM33 17h1v1h-1zM34 17h1v1h-1zM35 17h1v1h-1zM40 17h1v1h-1zM4 18h1v1h-1zM5 18h1v1h-1zM10 18h1v1h-1zM14 18h1v1h-1zM16 18h1v1h-1zM17 18h1v1h-1zM19 18h1v1h-1zM20 18h1v1h-1zM21 18h1v1h-1zM22 18h1v1h-1zM23 18h1v1h-1zM24 18h1v1h-1zM25 18h1v1h-1zM26 18h1v1h-1zM27 18h1v1h-1zM28 18h1v1h-1zM29 18h1v1h-1zM31 18h1v1h-1zM32 18h1v1h-1zM35 18h1v1h-1zM36 18h1v1h-1zM38 18h1v1h-1zM39 18h1v1h-1zM9 19h1v1h-1zM11 19h1v1h-1zM12 19h1v1h-1zM14 19h1v1h-1zM15 19h1v1h-1zM17 19h1v1h-1zM20 19h1v1h-1zM22 19h1v1h-1zM23 19h1v1h-1zM24 19h1v1h-1zM25 19h1v1h-1zM29 19h1v1h-1zM30 19h1v1h-1zM32 19h1v1h-1zM34 19h1v1h-1zM37 19h1v1h-1zM38 19h1v1h-1zM6 20h1v1h-1zM8 20h1v1h-1zM9 20h1v1h-1zM10 20h1v1h-1zM11 20h1v1h-1zM15 20h1v1h-1zM18 20h1v1h-1zM20 20h1v1h-1zM22 20h1v1h-1zM23 20h1v1h-1zM25 20h1v1h-1zM27 20h1v1h-1zM28 20h1v1h-1zM30 20h1v1h-1zM32 20h1v1h-1zM33 20h1v1h-1zM37 20h1v1h-1zM39 20h1v1h-1zM40 20h1v1h-1zM8 21h1v1h-1zM11 21h1v1h-1zM14 21h1v1h-1zM21 21h1v1h-1zM22 21h1v1h-1zM23 21h1v1h-1zM25 21h1v1h-1zM27 21h1v1h-1zM28 21h1v1h-1zM30 21h1v1h-1zM31 21h1v1h-1zM32 21h1v1h-1zM34 21h1v1h-1zM37 21h1v1h-1zM39 21h1v1h-1zM5 22h1v1h-1zM6 22h1v1h-1zM7 22h1v1h-1zM9 22h1v1h-1zM10 22h1v1h-1zM11 22h1v1h-1zM16 22h1v1h-1zM18 22h1v1h-1zM20 22h1v1h-1zM24 22h1v1h-1zM27 22h1v1h-1zM28 22h1v1h-1zM29 22h1v1h-1zM30 22h1v1h-1zM31 22h1v1h-1zM32 22h1v1h-1zM35 22h1v1h-1zM37 22h1v1h-1zM39 22h1v1h-1zM5 23h1v1h-1zM6 23h1v1h-1zM12 23h1v1h-1zM13 23h1v1h-1zM15 23h1v1h-1zM17 23h1v1h-1zM19 23h1v1h-1zM21 23h1v1h-1zM22 23h1v1h-1zM23 23h1v1h-1zM24 23h1v1h-1zM25 23h1v1h-1zM26 23h1v1h-1zM28 23h1v1h-1zM29 23h1v1h-1zM31 23h1v1h-1zM32 23h1v1h-1zM33 23h1v1h-1zM36 23h1v1h-1zM38 23h1v1h-1zM40 23h1v1h-1zM5 24h1v1h-1zM7 24h1v1h-1zM8 24h1v1h-1zM10 24h1v1h-1zM13 24h1v1h-1zM15 24h1v1h-1zM17 24h1v1h-1zM19 24h1v1h-1zM20 24h1v1h-1zM27 24h1v1h-1zM28 24h1v1h-1zM34 24h1v1h-1zM35 24h1v1h-1zM36 24h1v1h-1zM37 24h1v1h-1zM39 24h1v1h-1zM40 24h1v1h-1zM4 25h1v1h-1zM7 25h1v1h-1zM9 25h1v1h-1zM11 25h1v1h-1zM13 25h1v1h-1zM15 25h1v1h-1zM16 25h1v1h-1zM19 25h1v1h-1zM20 25h1v1h-1zM21 25h1v1h-1zM23 25h1v1h-1zM24 25h1v1h-1zM25 25h1v1h-1zM27 25h1v1h-1zM29 25h1v1h-1zM30 25h1v1h-1zM32 25h1v1h-1zM33 25h1v1h-1zM34 25h1v1h-1zM36 25h1v1h-1zM39 25h1v1h-1zM5 26h1v1h-1zM7 26h1v1h-1zM10 26h1v1h-1zM11 26h1v1h-1zM12 26h1v1h-1zM13 26h1v1h-1zM15 26h1v1h-1zM18 26h1v1h-1zM20 26h1v1h-1zM23 26h1v1h-1zM24 26h1v1h-1zM25 26h1v1h-1zM26 26h1v1h-1zM27 26h1v1h-1zM28 26h1v1h-1zM29 26h1v1h-1zM31 26h1v1h-1zM33 26h1v1h-1zM34 26h1v1h-1zM36 26h1v1h-1zM37 26h1v1h-1zM38 26h1v1h-1zM39 26h1v1h-1zM5 27h1v1h-1zM6 27h1v1h-1zM7 27h1v1h-1zM8 27h1v1h-1zM9 27h1v1h-1zM11 27h1v1h-1zM13 27h1v1h-1zM14 27h1v1h-1zM15 27h1v1h-1zM17 27h1v1h-1zM19 27h1v1h-1zM23 27h1v1h-1zM25 27h1v1h-1zM30 27h1v1h-1zM31 27h1v1h-1zM32 27h1v1h-1zM33 27h1v1h-1zM35 27h1v1h-1zM36 27h1v1h-1zM4 28h1v1h-1zM5 28h1v1h-1zM6 28h1v1h-1zM7 28h1v1h-1zM8 28h1v1h-1zM10 28h1v1h-1zM12 28h1v1h-1zM13 28h1v1h-1zM15 28h1v1h-1zM18 28h1v1h-1zM19 28h1v1h-1zM20 28h1v1h-1zM22 28h1v1h-1zM23 28h1v1h-1zM25 28h1v1h-1zM27 28h1v1h-1zM28 28h1v1h-1zM30 28h1v1h-1zM32 28h1v1h-1zM34 28h1v1h-1zM37 28h1v1h-1zM39 28h1v1h-1zM40 28h1v1h-1zM5 29h1v1h-1zM7 29h1v1h-1zM13 29h1v1h-1zM14 29h1v1h-1zM16 29h1v1h-1zM20 29h1v1h-1zM24 29h1v1h-1zM25 29h1v1h-1zM26 29h1v1h-1zM27 29h1v1h-1zM29 29h1v1h-1zM30 29h1v1h-1zM32 29h1v1h-1zM34 29h1v1h-1zM36 29h1v1h-1zM37 29h1v1h-1zM40 29h1v1h-1zM4 30h1v1h-1zM6 30h1v1h-1zM7 30h1v1h-1zM10 30h1v1h-1zM11 30h1v1h-1zM13 30h1v1h-1zM14 30h1v1h-1zM15 30h1v1h-1zM16 30h1v1h-1zM18 30h1v1h-1zM20 30h1v1h-1zM22 30h1v1h-1zM23 30h1v1h-1zM24 30h1v1h-1zM26 30h1v1h-1zM28 30h1v1h-1zM30 30h1v1h-1zM32 30h1v1h-1zM34 30h1v1h-1zM36 30h1v1h-1zM38 30h1v1h-1zM5 31h1v1h-1zM7 31h1v1h-1zM9 31h1v1h-1zM13 31h1v1h-1zM18 31h1v1h-1zM20 31h1v1h-1zM22 31h1v1h-1zM26 31h1v1h-1zM29 31h1v1h-1zM30 31h1v1h-1zM31 31h1v1h-1zM32 31h1v1h-1zM36 31h1v1h-1zM39 31h1v1h-1zM4 32h1v1h-1zM9 32h1v1h-1zM10 32h1v1h-1zM11 32h1v1h-1zM13 32h1v1h-1zM15 32h1v1h-1zM17 32h1v1h-1zM20 32h1v1h-1zM21 32h1v1h-1zM22 32h1v1h-1zM23 32h1v1h-1zM28 32h1v1h-1zM30 32h1v1h-1zM32 32h1v1h-1zM33 32h1v1h-1zM34 32h1v1h-1zM35 32h1v1h-1zM36 32h1v1h-1zM39 32h1v1h-1zM12 33h1v1h-1zM13 33h1v1h-1zM16 33h1v1h-1zM17 33h1v1h-1zM18 33h1v1h-1zM19 33h1v1h-1zM20 33h1v1h-1zM21 33h1v1h-1zM22 33h1v1h-1zM24 33h1v1h-1zM26 33h1v1h-1zM28 33h1v1h-1zM31 33h1v1h-1zM32 33h1v1h-1zM36 33h1v1h-1zM38 33h1v1h-1zM4 34h1v1h-1zM5 34h1v1h-1zM6 34h1v1h-1zM7 34h1v1h-1zM8 34h1v1h-1zM9 34h1v1h-1zM10 34h1v1h-1zM12 34h1v1h-1zM13 34h1v1h-1zM14 34h1v1h-1zM15 34h1v1h-1zM16 34h1v1h-1zM19 34h1v1h-1zM20 34h1v1h-1zM22 34h1v1h-1zM24 34h1v1h-1zM29 34h1v1h-1zM30 34h1v1h-1zM32 34h1v1h-1zM34 34h1v1h-1zM36 34h1v1h-1zM37 34h1v1h-1zM39 34h1v1h-1zM40 34h1v1h-1zM4 35h1v1h-1zM10 35h1v1h-1zM12 35h1v1h-1zM14 35h1v1h-1zM16 35h1v1h-1zM17 35h1v1h-1zM19 35h1v1h-1zM24 35h1v1h-1zM25 35h1v1h-1zM27 35h1v1h-1zM29 35h1v1h-1zM31 35h1v1h-1zM32 35h1v1h-1zM36 35h1v1h-1zM39 35h1v1h-1zM40 35h1v1h-1zM4 36h1v1h-1zM6 36h1v1h-1zM7 36h1v1h-1zM8 36h1v1h-1zM10 36h1v1h-1zM16 36h1v1h-1zM18 36h1v1h-1zM19 36h1v1h-1zM20 36h1v1h-1zM23 36h1v1h-1zM24 36h1v1h-1zM29 36h1v1h-1zM30 36h1v1h-1zM31 36h1v1h-1zM32 36h1v1h-1zM33 36h1v1h-1zM34 36h1v1h-1zM35 36h1v1h-1zM36 36h1v1h-1zM37 36h1v1h-1zM39 36h1v1h-1zM40 36h1v1h-1zM4 37h1v1h-1zM6 37h1v1h-1zM7 37h1v1h-1zM8 37h1v1h-1zM10 37h1v1h-1zM13 37h1v1h-1zM14 37h1v1h-1zM17 37h1v1h-1zM18 37h1v1h-1zM21 37h1v1h-1zM24 37h1v1h-1zM25 37h1v1h-1zM28 37h1v1h-1zM29 37h1v1h-1zM30 37h1v1h-1zM31 37h1v1h-1zM32 37h1v1h-1zM34 37h1v1h-1zM38 37h1v1h-1zM40 37h1v1h-1zM4 38h1v1h-1zM6 38h1v1h-1zM7 38h1v1h-1zM8 38h1v1h-1zM10 38h1v1h-1zM12 38h1v1h-1zM16 38h1v1h-1zM17 38h1v1h-1zM20 38h1v1h-1zM24 38h1v1h-1zM25 38h1v1h-1zM28 38h1v1h-1zM36 38h1v1h-1zM37 38h1v1h-1zM38 38h1v1h-1zM40 38h1v1h-1zM4 39h1v1h-1zM10 39h1v1h-1zM12 39h1v1h-1zM14 39h1v1h-1zM16 39h1v1h-1zM18 39h1v1h-1zM19 39h1v1h-1zM20 39h1v1h-1zM22 39h1v1h-1zM23 39h1v1h-1zM25 39h1v1h-1zM26 39h1v1h-1zM27 39h1v1h-1zM30 39h1v1h-1zM31 39h1v1h-1zM32 39h1v1h-1zM34 39h1v1h-1zM35 39h1v1h-1zM40 39h1v1h-1zM4 40h1v1h-1zM5 40h1v1h-1zM6 40h1v1h-1zM7 40h1v1h-1zM8 40h1v1h-1zM9 40h1v1h-1zM10 40h1v1h-1zM12 40h1v1h-1zM14 40h1v1h-1zM15 40h1v1h-1zM18 40h1v1h-1zM19 40h1v1h-1zM22 40h1v1h-1zM24 40h1v1h-1zM26 40h1v1h-1zM27 40h1v1h-1zM28 40h1v1h-1zM30 40h1v1h-1zM34 40h1v1h-1zM35 40h1v1h-1zM36 40h1v1h-1zM38 40h1v1h-1zM39 40h1v1h-1zM40 40h1v1h-1z"/>
  <rect x="17.5" y="17.5" width="10" height="10" rx="1.2" fill="#fff"/>
  <svg x="18" y="18" width="9" height="9" viewBox="0 0 512 512">
  <!--
    Generated by tools/trace-icon.sh from tools/logo-source.jpg. Do not edit: the
    path is traced output, and the transforms are derived from where the mark
    landed in the bitmap. Change the artwork or the framing and re-run the script.

    Next.js serves this from its filename alone; the rules are in
    node_modules/next/dist/docs/01-app/03-api-reference/03-file-conventions/01-metadata/app-icons.md

    The white ground is deliberate, not padding. The artwork is pure black and a
    tab strip in a dark theme would swallow it if this were transparent.
  -->
  <rect width="512" height="512" fill="#fff"/>
  <g transform="translate(9.441 5.449) scale(0.4696356)">
    <g transform="translate(0.000000,1056.000000) scale(0.100000,-0.100000)" fill="#000" stroke="none">
    <path d="M2090 10034 c-757 -98 -1353 -598 -1584 -1325 -83 -265 -101 -627
    -77 -1634 11 -467 20 -473 290 -223 260 240 308 281 511 442 325 258 642 470
    975 652 112 61 182 130 259 254 348 557 753 1041 1221 1455 313 278 355 341
    247 377 -57 19 -1697 21 -1842 2z M6720 10043 c-247 -42 -819 -257 -1185 -447
    -563 -292 -1127 -722 -1103 -842 9 -49 6 -49 558 -23 391 18 935 -7 1215 -55
    50 -8 151 -25 225 -36 198 -30 641 -142 851 -215 57 -20 160 -56 229 -80 228
    -79 565 -229 794 -352 510 -273 958 -586 1376 -959 291 -258 322 -276 358
    -197 22 49 26 1482 5 1635 -48 346 -275 776 -549 1038 -309 297 -668 468
    -1099 524 -113 15 -1594 23 -1675 9z M5010 7934 c-1228 -67 -2370 -514 -3369
    -1319 -147 -118 -623 -558 -633 -585 -2 -4 -55 -64 -118 -133 -324 -351 -580
    -699 -580 -786 0 -81 66 -171 312 -423 532 -545 1118 -1015 1738 -1393 52 -32
    124 -76 160 -98 189 -117 654 -336 900 -425 1895 -684 4349 -229 5783 1073
    397 361 794 868 942 1203 78 179 56 246 -181 542 -1075 1341 -2534 2168 -4104
    2326 -137 13 -709 26 -850 18z m-943 -1559 c234 -44 395 -195 485 -455 43
    -125 43 -125 43 -345 0 -220 0 -220 -47 -342 -63 -165 -122 -260 -239 -387
    -101 -108 -116 -135 -104 -183 31 -129 417 -310 741 -348 832 -97 1524 353
    1794 1167 44 131 65 422 46 633 -22 246 -17 268 60 273 225 13 995 -484 1384
    -894 247 -260 252 -310 57 -574 -746 -1008 -2542 -1506 -4057 -1125 -630 159
    -1415 604 -1982 1124 -211 194 -216 251 -41 450 444 506 1092 929 1533 1001
    41 6 82 13 90 15 43 8 168 3 237 -10z M482 3723 c-44 -17 -46 -37 -54 -648
    -10 -819 3 -1109 57 -1270 13 -38 31 -97 40 -129 9 -33 46 -119 81 -192 273
    -562 750 -927 1378 -1057 100 -21 123 -21 1881 -24 1831 -4 1855 -4 1930 34
    123 63 566 586 782 923 210 329 227 420 78 420 -48 0 -355 -37 -504 -61 -329
    -52 -1182 -49 -1588 6 -1041 140 -1872 417 -2648 882 -460 276 -750 502 -1156
    897 -177 173 -249 229 -277 219z M9964 3454 c-38 -18 -124 -88 -334 -269 -348
    -301 -712 -546 -1119 -756 -189 -97 -260 -153 -287 -227 -9 -26 -28 -74 -41
    -107 -14 -33 -40 -98 -58 -145 -61 -156 -114 -289 -124 -307 -5 -10 -38 -76
    -73 -148 -126 -262 -234 -452 -444 -781 -197 -308 -189 -314 416 -314 566 0
    766 34 1086 185 519 244 862 671 1039 1289 38 131 52 1457 16 1544 -18 44 -40
    54 -77 36z"/>
    </g>
  </g>
</svg>
</svg>
